<?xml version="1.0" encoding="utf-8"?>
<svg width="87" height="15" viewBox="0 0 87 15" fill="#000000" xmlns="http://www.w3.org/2000/svg">
  <g>
    <path d="M 14.481 3.28 C 14.008 4.157 13.22 4.827 12.273 5.161 C 11.326 5.494 10.287 5.466 9.36 5.082 C 9.833 4.205 10.621 3.535 11.568 3.202 C 12.515 2.869 13.554 2.897 14.481 3.28 Z" fill="#000000"/>
    <path d="M 3.136 9.259 C 3.453 10.133 4.073 10.868 4.884 11.335 C 5.696 11.802 6.649 11.971 7.575 11.812 C 8.5 11.653 9.339 11.177 9.944 10.467 C 10.55 9.756 10.882 8.858 10.882 7.929 L 10.882 7.904 C 10.882 7.847 10.882 7.789 10.882 7.733 L 10.882 7.715 C 10.848 7.203 10.613 6.725 10.227 6.382 C 9.842 6.038 9.336 5.857 8.817 5.876 C 8.299 5.896 7.808 6.114 7.45 6.485 C 7.091 6.856 6.893 7.35 6.898 7.863 C 6.897 8.377 6.694 8.871 6.331 9.239 C 5.968 9.608 5.474 9.822 4.954 9.836 L 4.842 9.836 C 4.226 9.825 3.63 9.623 3.136 9.259 Z" fill="#000000"/>
    <path d="M 4.899 9.324 C 5.716 9.324 6.379 8.669 6.379 7.861 C 6.379 7.053 5.716 6.398 4.899 6.398 C 4.081 6.398 3.418 7.053 3.418 7.861 C 3.418 8.669 4.081 9.324 4.899 9.324 Z" fill="#000000"/>
    <path d="M 3.444 13.827 C 1.863 12.921 0.709 11.432 0.236 9.688 C -0.238 7.943 0.008 6.084 0.919 4.517 C 1.109 4.193 1.325 3.884 1.566 3.594 L 1.576 3.58 L 4.659 0 C 5.041 0.322 5.278 0.78 5.318 1.274 C 5.357 1.768 5.197 2.257 4.872 2.635 L 3.022 4.78 C 2.583 5.309 2.26 5.922 2.073 6.581 C 1.885 7.24 1.838 7.929 1.934 8.607 C 2.03 9.284 2.267 9.935 2.631 10.517 C 2.994 11.1 3.475 11.601 4.044 11.991 C 4.613 12.38 5.258 12.649 5.938 12.779 C 6.617 12.91 7.317 12.9 7.992 12.75 C 8.667 12.6 9.304 12.314 9.862 11.908 C 10.419 11.503 10.886 10.988 11.232 10.396 C 11.369 10.159 11.487 9.912 11.583 9.657 L 12.539 6.997 C 12.709 6.534 13.058 6.156 13.509 5.945 C 13.96 5.735 14.477 5.709 14.948 5.874 L 13.355 10.316 C 13.003 11.243 12.45 12.082 11.737 12.777 C 11.023 13.472 10.165 14.005 9.222 14.339 C 8.279 14.673 7.274 14.8 6.276 14.712 C 5.278 14.623 4.312 14.321 3.444 13.827 Z" fill="#000000"/>
  </g>
  <g>
    <path d="M 39.917 3.978 L 37.633 10.775 C 37.527 11.093 37.321 11.37 37.046 11.566 C 36.772 11.762 36.441 11.868 36.102 11.868 L 35.736 11.868 L 33.925 6.469 L 32.48 10.775 C 32.372 11.094 32.167 11.371 31.891 11.567 C 31.616 11.763 31.285 11.868 30.946 11.868 L 30.579 11.868 L 27.933 3.978 L 28.441 3.978 C 28.78 3.978 29.11 4.084 29.385 4.28 C 29.66 4.476 29.865 4.752 29.972 5.07 L 31.348 9.162 L 33.09 3.975 L 33.598 3.975 C 33.938 3.975 34.269 4.081 34.544 4.278 C 34.819 4.474 35.025 4.751 35.132 5.07 L 36.503 9.162 L 37.879 5.067 C 37.985 4.749 38.191 4.473 38.466 4.277 C 38.74 4.081 39.071 3.975 39.41 3.975 L 39.917 3.978 Z" fill="black"/>
    <path d="M 14.282 11.867 L 16.932 3.978 L 17.299 3.978 C 17.639 3.976 17.97 4.081 18.246 4.277 C 18.522 4.473 18.728 4.75 18.835 5.068 L 21.118 11.866 L 20.608 11.866 C 20.27 11.865 19.94 11.76 19.665 11.564 C 19.391 11.368 19.186 11.092 19.079 10.775 L 17.703 6.679 L 16.328 10.775 C 16.221 11.093 16.017 11.37 15.742 11.566 C 15.467 11.762 15.137 11.867 14.798 11.867 L 14.282 11.867 Z" fill="black"/>
    <path d="M 21.954 11.867 L 21.954 3.99 L 24.898 3.99 C 25.29 3.987 25.68 4.06 26.044 4.206 C 26.408 4.352 26.739 4.567 27.019 4.839 C 27.299 5.112 27.522 5.436 27.675 5.793 C 27.828 6.151 27.908 6.534 27.911 6.922 C 27.914 7.31 27.84 7.695 27.692 8.055 C 27.545 8.415 27.327 8.742 27.052 9.019 C 26.776 9.295 26.448 9.516 26.087 9.667 C 25.725 9.818 25.337 9.898 24.944 9.901 L 24.582 9.901 L 24.582 8.662 C 24.582 8.619 24.591 8.577 24.608 8.537 C 24.624 8.497 24.649 8.461 24.68 8.431 C 24.71 8.401 24.747 8.376 24.787 8.36 C 24.828 8.344 24.871 8.336 24.914 8.336 C 25.272 8.339 25.617 8.208 25.881 7.971 C 26.146 7.734 26.31 7.406 26.342 7.055 C 26.356 6.864 26.331 6.673 26.267 6.493 C 26.204 6.313 26.103 6.148 25.972 6.008 C 25.841 5.868 25.682 5.756 25.505 5.68 C 25.328 5.603 25.137 5.564 24.944 5.564 L 23.542 5.564 L 23.542 10.292 C 23.542 10.499 23.502 10.703 23.422 10.894 C 23.343 11.085 23.226 11.259 23.078 11.405 C 22.931 11.552 22.756 11.668 22.563 11.747 C 22.37 11.826 22.163 11.867 21.954 11.867 Z" fill="black"/>
    <path d="M 40.739 3.99 L 40.739 10.298 C 40.739 10.504 40.78 10.708 40.86 10.899 C 40.94 11.089 41.057 11.262 41.204 11.408 C 41.351 11.553 41.527 11.669 41.719 11.748 C 41.912 11.827 42.118 11.867 42.327 11.867 L 42.327 5.563 C 42.327 5.357 42.287 5.152 42.207 4.962 C 42.128 4.771 42.011 4.597 41.863 4.451 C 41.716 4.305 41.541 4.189 41.348 4.11 C 41.155 4.03 40.948 3.99 40.739 3.99 Z" fill="black"/>
    <path d="M 53.017 5.563 L 53.017 7.146 L 56.182 7.146 C 56.183 7.352 56.142 7.557 56.062 7.747 C 55.982 7.938 55.865 8.111 55.718 8.257 C 55.57 8.403 55.395 8.519 55.203 8.598 C 55.01 8.677 54.803 8.718 54.594 8.718 L 53.017 8.718 L 53.017 10.298 L 57 10.298 C 57 10.714 56.832 11.113 56.535 11.407 C 56.237 11.702 55.833 11.867 55.412 11.867 L 51.429 11.867 L 51.429 3.99 L 57 3.99 C 57 4.406 56.832 4.805 56.535 5.099 C 56.237 5.393 55.833 5.559 55.412 5.559 L 53.017 5.563 Z" fill="black"/>
    <path d="M 50.285 3.99 L 50.285 11.867 L 49.524 11.867 C 49.269 11.867 49.017 11.807 48.791 11.69 C 48.565 11.574 48.37 11.405 48.224 11.198 L 45.058 6.729 L 45.058 10.298 C 45.058 10.714 44.891 11.113 44.593 11.407 C 44.295 11.702 43.892 11.867 43.471 11.867 L 43.471 3.99 L 44.232 3.99 C 44.487 3.99 44.738 4.051 44.965 4.167 C 45.191 4.284 45.386 4.453 45.532 4.659 L 48.698 9.132 L 48.698 5.563 C 48.697 5.357 48.737 5.152 48.817 4.961 C 48.896 4.77 49.013 4.597 49.161 4.451 C 49.308 4.304 49.483 4.188 49.676 4.109 C 49.87 4.03 50.076 3.99 50.285 3.99 Z" fill="black"/>
  </g>
  
</svg>