<?xml version="1.0" standalone="no"?>
<!DOCTYPE svg PUBLIC "-//W3C//DTD SVG 20010904//EN"
 "http://www.w3.org/TR/2001/REC-SVG-20010904/DTD/svg10.dtd">
<svg version="1.0" xmlns="http://www.w3.org/2000/svg"
 width="564.000000pt" height="564.000000pt" viewBox="0 0 564.000000 564.000000"
 preserveAspectRatio="xMidYMid meet">
<metadata>
Created by potrace 1.16, written by Peter Selinger 2001-2019
</metadata>
<g transform="translate(0.000000,564.000000) scale(0.100000,-0.100000)"
fill="#A2C4BA" stroke="none">
<path d="M2980 5594 c-146 -18 -262 -66 -331 -138 -24 -25 -51 -46 -60 -46 -9
0 -31 -13 -49 -30 -37 -34 -63 -37 -111 -13 -19 10 -64 19 -101 21 -62 4 -69
2 -113 -29 -26 -19 -62 -44 -79 -55 -18 -12 -56 -44 -87 -70 -30 -27 -61 -53
-70 -59 -8 -5 -44 -29 -78 -52 -105 -71 -159 -87 -286 -88 -94 0 -116 3 -155
22 -46 23 -80 67 -80 106 -1 20 -1 20 -11 4 -8 -13 -5 -29 11 -62 17 -36 32
-49 78 -72 50 -24 66 -27 156 -26 69 0 123 7 170 21 l69 20 -49 -41 c-27 -23
-69 -64 -94 -91 -25 -27 -110 -113 -189 -190 -125 -123 -218 -225 -351 -386
-120 -144 -274 -408 -321 -550 -42 -127 -24 -317 37 -390 25 -29 26 -34 19
-108 -19 -191 -1 -337 45 -384 41 -40 110 -37 110 5 0 16 -3 18 -12 9 -14 -14
-32 -16 -23 -2 3 5 0 7 -8 4 -21 -8 -46 37 -63 116 -14 60 -15 92 -5 227 12
167 23 223 65 350 29 83 90 215 81 173 -36 -162 -37 -182 -36 -365 1 -212 -7
-276 -42 -364 -38 -94 -8 -75 40 25 l41 86 7 -99 c4 -54 10 -125 15 -158 7
-52 4 -68 -16 -116 -13 -31 -33 -73 -45 -94 -24 -41 -12 -40 -144 -14 -33 6
-166 12 -295 14 -250 3 -268 6 -478 60 -74 20 -137 33 -139 31 -12 -12 13 -24
88 -42 91 -21 97 -26 153 -141 68 -139 153 -412 191 -613 9 -52 32 -157 51
-232 19 -75 34 -140 34 -144 0 -4 -9 1 -20 11 -11 10 -20 14 -20 8 0 -11 88
-135 165 -232 28 -35 84 -107 126 -160 119 -150 112 -125 117 -431 2 -146 -1
-337 -6 -425 -13 -201 -31 -256 -109 -332 -29 -29 -53 -55 -53 -58 0 -3 594
-5 1321 -5 l1320 0 59 40 c99 67 323 190 545 300 116 57 212 106 215 110 3 3
48 22 100 43 109 42 249 79 417 108 101 17 130 18 203 9 96 -12 380 -18 380
-9 0 11 -42 19 -104 19 l-59 0 39 26 c21 14 129 115 239 225 110 109 210 206
223 214 20 15 22 24 22 101 0 46 -4 84 -9 84 -25 0 -507 -94 -568 -111 -82
-23 -92 -20 -135 42 -21 29 -36 39 -65 44 -39 7 -266 64 -358 90 -43 13 -69
31 -143 103 -50 48 -111 114 -135 148 -35 47 -54 64 -91 78 -26 10 -122 54
-214 98 -92 44 -197 94 -234 111 l-68 32 0 58 c0 31 3 57 6 57 3 0 30 -23 60
-52 51 -48 178 -138 196 -138 16 0 7 13 -46 60 -34 32 -67 75 -91 122 -30 59
-33 68 -14 48 58 -61 149 -172 179 -218 29 -45 34 -49 47 -36 13 13 11 19 -16
50 -31 34 -35 53 -31 134 3 66 8 73 35 42 30 -33 32 -15 4 32 l-21 36 27 80
c15 44 30 82 34 85 5 2 11 -22 14 -55 5 -62 43 -142 71 -153 24 -10 28 11 7
32 -11 11 -23 37 -27 57 -8 43 0 165 18 261 l12 68 17 -103 c15 -90 22 -111
64 -178 52 -83 119 -137 165 -132 34 4 31 22 -4 28 -66 12 -135 158 -136 285
0 65 16 143 38 181 7 13 11 14 17 3 14 -22 17 -162 5 -209 -22 -84 -22 -90
-13 -90 13 0 72 132 85 190 l10 46 35 -35 c31 -31 34 -40 30 -73 -3 -21 -19
-68 -36 -104 -35 -75 -35 -74 -21 -74 13 0 68 113 76 158 6 30 8 32 23 18 59
-56 78 -75 96 -98 22 -29 120 -72 142 -64 18 7 7 26 -15 26 -21 1 -51 25 -80
68 -21 29 -22 32 -5 30 33 -2 63 2 63 10 0 4 -17 17 -38 30 -64 40 -85 81 -86
172 -1 43 2 81 6 85 4 4 20 -2 35 -13 16 -11 47 -23 68 -27 l40 -7 -33 27
c-37 31 -72 93 -71 127 0 13 6 39 14 58 l13 35 11 -28 c6 -16 11 -31 11 -34 0
-8 91 -187 102 -201 18 -21 19 -7 3 25 -17 33 -58 219 -52 236 4 14 64 -131
82 -200 21 -81 19 -139 -6 -174 -15 -22 -17 -29 -6 -29 19 0 42 27 61 74 20
49 21 182 1 291 -56 300 -56 306 -45 392 11 76 13 81 31 70 28 -18 35 -103 14
-188 -9 -39 -14 -73 -12 -76 12 -11 49 85 62 160 6 36 8 38 23 24 36 -33 147
-77 193 -77 53 0 107 16 129 38 16 16 23 16 -92 -7 -72 -15 -134 9 -187 72
-41 48 -57 96 -64 184 -3 44 -11 101 -16 125 -6 23 -12 85 -14 136 -3 82 -1
92 13 87 9 -3 68 -6 131 -7 146 -3 190 14 243 93 32 47 37 69 18 69 -4 0 -12
-10 -17 -22 -10 -22 -76 -73 -106 -81 -12 -3 -15 1 -11 18 6 32 -16 42 -27 12
-20 -51 -86 -73 -188 -62 l-63 7 0 86 c0 120 -34 246 -97 364 -57 106 -168
277 -256 392 -81 106 -55 98 139 -45 81 -60 192 -177 249 -264 81 -124 104
-219 70 -285 -18 -34 -30 -38 -44 -12 -9 16 -10 16 -16 -1 -8 -19 10 -47 30
-47 27 0 72 50 84 92 41 150 -122 396 -400 603 -62 47 -155 105 -168 105 -9 0
-73 68 -141 150 -194 235 -437 355 -925 456 -163 33 -211 37 -262 21 -93 -30
-109 -30 -181 -3 -37 14 -91 31 -120 39 -49 12 -52 14 -35 29 89 78 389 131
555 98 99 -19 241 -67 346 -118 133 -63 131 -62 136 -53 10 15 -218 120 -349
160 -135 42 -342 67 -445 55z m-1073 -1050 c-31 -74 -70 -209 -100 -342 l-23
-103 -19 41 c-17 37 -17 48 -6 123 15 95 67 217 127 294 22 28 40 49 42 48 2
-2 -8 -29 -21 -61z m-423 44 c-4 -7 -40 -56 -80 -109 -215 -286 -380 -624
-448 -924 -9 -38 -23 -76 -30 -83 -41 -42 -74 153 -46 277 25 116 185 406 299
544 74 90 157 176 241 249 69 61 76 66 64 46z m221 -401 c17 -30 25 -58 25
-90 l0 -47 -36 38 c-40 42 -35 30 16 -41 l35 -49 5 54 5 53 8 -37 c4 -21 4
-79 0 -130 -4 -51 -6 -96 -5 -100 3 -13 -16 -9 -21 5 -11 30 -100 127 -115
126 -16 0 -16 -1 0 -7 30 -12 128 -154 128 -186 l0 -29 -28 39 c-41 56 -113
125 -123 118 -15 -9 -9 48 11 106 11 30 19 66 19 80 -1 17 -7 8 -20 -30 -12
-33 -18 -42 -15 -23 7 44 66 193 76 193 5 0 21 -20 35 -43z m869 -37 c3 -25
10 -97 15 -160 12 -145 29 -252 47 -303 8 -22 14 -41 14 -43 0 -2 -28 13 -62
34 -76 47 -77 49 -77 272 -1 140 1 160 21 207 13 28 26 49 29 45 4 -4 10 -27
13 -52z m-70 -409 c5 -8 -15 -11 -68 -11 -41 0 -78 -4 -81 -10 -4 -6 10 -10
36 -10 23 0 58 -5 79 -11 31 -10 40 -19 58 -62 12 -28 24 -48 28 -45 3 4 1 15
-5 26 -6 12 -11 30 -11 41 0 20 0 20 38 -1 68 -40 83 -56 122 -135 37 -76 80
-133 101 -133 5 0 -1 15 -15 33 -28 36 -89 147 -84 152 2 3 205 -129 217 -141
7 -7 -51 -354 -59 -354 -8 0 -100 67 -110 80 -32 42 -311 215 -404 250 -27 10
-42 23 -49 42 -8 26 -4 32 49 80 31 29 69 56 83 59 25 7 25 7 -4 8 -24 1 -41
-9 -80 -49 -26 -27 -52 -47 -56 -44 -4 2 -11 24 -14 48 -6 35 -2 53 21 97 15
30 52 110 83 179 31 69 68 145 81 169 l25 44 6 -146 c4 -79 9 -150 13 -156z
m146 149 c26 -66 99 -183 157 -250 49 -57 113 -154 113 -172 0 -19 -4 -17 -42
14 -24 19 -79 59 -123 90 -76 53 -81 59 -97 114 -30 104 -50 272 -30 249 5 -6
15 -26 22 -45z m-998 -147 c18 -20 25 -41 27 -74 1 -26 8 -75 16 -110 7 -35
11 -66 10 -67 -2 -2 -26 18 -53 45 -57 55 -68 90 -57 178 7 63 19 68 57 28z
m1703 -173 c-3 -5 -2 -10 2 -12 5 -1 17 -21 28 -43 15 -31 20 -63 21 -145 0
-58 -2 -118 -5 -135 l-6 -30 -22 46 c-16 35 -23 72 -27 165 -4 65 -9 142 -12
169 -5 50 -5 50 11 21 8 -15 13 -32 10 -36z m-1792 -67 c18 -34 63 -70 74 -59
3 3 1 6 -5 6 -27 0 -84 81 -69 97 8 7 56 -30 57 -43 0 -7 15 -15 34 -18 19 -4
44 -15 56 -24 l22 -18 -56 -43 c-50 -39 -242 -151 -258 -151 -3 0 3 23 15 50
16 38 25 49 37 44 29 -13 78 -16 84 -5 5 7 -3 11 -22 11 -41 0 -64 28 -56 69
6 29 24 54 24 33 0 -13 39 -52 53 -52 6 0 2 7 -9 15 -38 26 -49 69 -34 133
l13 57 11 -35 c6 -19 19 -50 29 -67z m693 -90 c-3 -7 -20 -13 -38 -14 l-33 0
35 -17 c19 -9 37 -18 39 -19 2 -1 -7 -11 -20 -22 -28 -24 -16 -27 24 -7 15 8
27 10 27 5 0 -5 -10 -14 -22 -19 -21 -8 -21 -9 8 -9 25 -1 33 -8 51 -45 23
-48 79 -116 95 -116 5 0 3 7 -5 15 -28 27 -55 80 -62 118 l-7 37 27 -10 c16
-6 40 -18 55 -27 24 -14 26 -20 22 -64 -2 -26 1 -62 7 -80 13 -37 14 -34 -19
-43 -19 -6 -21 -5 -10 3 13 9 13 11 -1 11 -26 0 -139 88 -149 115 -10 27 -17
30 -40 15 -12 -8 -9 -15 20 -37 19 -16 50 -43 68 -60 18 -18 37 -33 42 -33 6
0 10 -7 10 -16 0 -10 6 -14 15 -10 8 3 21 -1 29 -9 8 -8 22 -15 30 -15 9 0 16
-4 16 -9 0 -5 7 -12 16 -15 8 -3 12 -2 9 4 -3 6 4 10 15 10 13 0 24 -8 27 -20
6 -22 19 -27 25 -8 3 7 14 9 34 3 l29 -8 -25 -7 c-24 -8 -23 -8 7 -9 17 -1 33
-5 35 -10 2 -6 17 -6 38 -1 l35 8 -30 2 c-18 1 -23 4 -12 7 22 6 107 -26 107
-40 0 -24 -204 -193 -282 -233 -15 -8 -28 -19 -28 -24 0 -10 35 8 108 54 74
46 229 185 259 232 19 28 -30 -104 -60 -162 -42 -82 -138 -204 -227 -286 -87
-81 -95 -101 -19 -46 107 77 246 255 323 414 52 106 57 112 93 122 l38 10 -33
7 c-23 6 -31 12 -28 24 3 9 10 36 17 61 18 67 25 67 38 3 13 -67 34 -103 60
-103 10 0 20 -2 23 -5 3 -3 -4 -47 -15 -98 -26 -124 -29 -299 -5 -323 25 -25
33 -11 12 20 -37 58 11 406 57 406 4 0 15 -7 24 -16 13 -13 14 -19 4 -25 -10
-6 -10 -16 2 -51 25 -76 14 -195 -43 -450 -13 -59 -27 -98 -34 -98 -7 0 -35 5
-62 11 -80 19 -110 8 -198 -76 l-79 -74 -230 -56 c-289 -70 -401 -90 -590
-105 -142 -12 -359 -3 -408 16 -25 9 -35 53 -41 174 -8 182 -25 316 -56 445
-34 143 -45 237 -35 296 l8 44 18 -40 c22 -48 24 -103 4 -129 -19 -26 -19 -60
1 -77 13 -11 14 -9 9 13 -4 16 0 38 10 59 26 49 16 117 -27 181 -19 29 -37 61
-41 71 -7 20 11 57 29 57 16 0 189 90 254 132 30 19 75 54 98 78 24 23 45 40
46 38 1 -2 8 -25 14 -53 21 -83 61 -157 110 -208 l47 -48 0 -87 c0 -48 -2
-102 -5 -121 -3 -18 -1 -34 5 -35 21 -3 39 60 39 141 1 46 2 83 3 83 1 0 9
-24 19 -52 21 -65 77 -179 115 -234 33 -49 154 -154 177 -154 12 0 10 5 -8 17
-61 42 -135 146 -169 236 -15 39 -9 34 27 -22 18 -27 47 -62 65 -78 18 -15 43
-43 55 -61 13 -17 33 -37 45 -44 21 -11 21 -11 3 17 -18 27 -18 28 0 22 11 -4
6 3 -10 15 -16 12 -42 50 -57 83 -30 66 -74 224 -65 233 4 3 6 -2 6 -10 0 -19
60 -110 104 -157 27 -29 113 -77 122 -68 2 2 -32 39 -74 83 -91 92 -104 117
-143 271 -36 142 -36 159 -2 255 l27 77 19 -66 c10 -36 16 -72 13 -80z m1243
-164 c1 -8 9 -33 20 -55 23 -49 43 -132 36 -145 -4 -5 -1 -9 4 -9 6 0 11 -7
11 -15 0 -17 -2 -18 -24 -9 -9 3 -16 13 -16 21 0 8 -4 12 -9 9 -5 -4 -21 9
-35 26 -14 18 -32 41 -40 50 -9 10 -14 23 -12 30 1 7 1 10 -1 5 -8 -13 -23 4
-23 26 0 18 2 20 11 7 9 -12 10 -11 6 6 -2 12 0 46 5 75 5 30 9 74 9 99 l0 45
29 -75 c16 -41 29 -82 29 -91z m111 -284 c0 -9 -9 -15 -23 -15 -12 0 -69 -27
-125 -61 -118 -70 -128 -84 -116 -169 l9 -55 3 43 c4 51 30 68 116 78 62 7 71
19 69 96 -1 43 23 60 45 31 11 -14 13 -42 9 -118 -11 -215 -66 -269 -282 -281
-84 -5 -115 -4 -115 4 0 8 20 12 54 12 63 0 86 7 86 25 0 7 6 15 13 18 9 3 9
7 1 18 -6 8 -12 36 -13 63 -1 27 -8 63 -16 80 -23 51 -24 146 -1 146 8 0 28
11 44 25 51 43 132 75 190 75 40 0 52 -4 52 -15z m-25 -447 c-12 -40 -41 -59
-161 -108 -126 -50 -140 -49 -110 9 9 16 16 32 16 36 0 11 -97 4 -114 -8 -11
-8 -20 -31 -23 -60 -5 -42 -19 -58 -35 -41 -11 11 28 126 46 136 16 9 109 8
286 -5 31 -2 37 2 49 31 17 38 57 47 46 10z m-423 -203 c3 -3 1 -26 -4 -51
-11 -49 -3 -114 12 -114 6 0 10 10 10 23 0 12 5 29 10 37 7 11 10 5 10 -25 1
-22 8 -58 16 -80 8 -22 19 -75 24 -117 10 -88 68 -218 97 -218 15 0 15 2 -1
19 -10 10 -24 43 -32 72 -15 58 -19 175 -6 183 11 7 97 -252 117 -352 16 -79
16 -130 0 -179 -4 -14 -3 -23 3 -23 17 0 33 62 34 134 0 36 3 66 5 66 6 0 53
-111 53 -126 0 -7 6 -17 14 -21 7 -4 35 -50 60 -101 32 -63 79 -132 144 -211
197 -238 402 -513 402 -537 0 -21 -11 -24 -177 -45 -87 -11 -171 -26 -186 -34
-16 -8 -79 -28 -140 -44 -62 -17 -186 -55 -277 -84 -299 -99 -380 -111 -529
-81 -23 5 -32 4 -28 -3 4 -6 33 -14 64 -18 53 -7 55 -9 28 -16 -77 -20 -345
-32 -678 -30 -338 2 -407 7 -407 31 0 11 -86 54 -208 105 l-113 47 -31 61
c-30 60 -30 63 -20 137 28 210 94 474 147 585 50 106 45 103 103 59 47 -36 51
-43 53 -84 2 -44 2 -44 8 -10 6 33 9 35 51 40 l45 5 -37 15 -37 15 63 140 c35
77 77 169 95 205 17 36 31 71 31 79 0 15 28 51 40 51 4 0 5 -28 4 -61 -4 -70
11 -110 75 -199 43 -60 54 -91 71 -220 11 -78 10 -89 -8 -131 -11 -26 -32 -66
-47 -89 -14 -23 -24 -44 -22 -47 15 -14 48 24 73 83 l28 67 13 -29 c17 -40 16
-13 -3 104 -9 53 -13 114 -11 136 7 48 -6 82 -40 109 -14 11 -43 48 -64 80
-34 52 -39 68 -39 117 l0 57 43 12 c135 39 444 174 740 323 109 55 201 98 203
95 2 -2 -13 -31 -35 -64 -44 -68 -150 -177 -196 -201 -16 -8 -25 -17 -18 -19
23 -8 133 58 198 118 36 34 65 57 65 53 -2 -50 -37 -146 -106 -292 -19 -40
-34 -76 -34 -79 0 -3 -15 -40 -34 -82 -18 -42 -57 -132 -86 -201 -51 -124 -79
-188 -87 -202 -2 -5 -2 -8 2 -8 3 0 17 26 31 58 15 31 37 80 50 107 12 28 36
82 52 120 93 227 178 425 182 425 3 0 6 -40 7 -88 3 -142 53 -307 108 -352 19
-16 19 -1 1 25 -72 106 -64 417 21 718 15 53 22 65 35 52z m-1278 -651 c-26
-55 -66 -144 -90 -199 -24 -55 -49 -101 -56 -103 -13 -3 -88 64 -88 78 0 4 20
35 45 69 42 57 48 61 85 61 48 0 54 17 8 22 l-33 3 84 88 c46 48 86 86 88 84
2 -3 -17 -49 -43 -103z"/>
<path d="M1 2487 c-2 -73 73 -349 179 -662 28 -82 62 -192 76 -244 25 -96 42
-136 30 -71 -13 70 -78 307 -101 370 -38 102 -101 307 -124 405 -52 219 -59
243 -60 202z"/>
<path d="M5 2235 c5 -58 14 -94 104 -395 101 -339 115 -375 176 -457 l58 -76
-75 -73 -75 -72 -7 -79 c-14 -154 -38 -288 -54 -307 -10 -10 -43 -38 -74 -63
l-58 -44 0 -335 0 -334 174 0 c96 0 176 4 178 9 2 4 46 41 98 81 52 39 99 79
104 88 30 55 73 94 133 122 36 17 68 29 70 26 3 -2 7 -32 10 -65 6 -58 5 -61
-26 -88 -17 -15 -31 -36 -31 -46 0 -14 7 -11 35 16 28 27 36 43 41 88 6 59
-15 252 -45 406 -11 54 -23 134 -27 178 -5 64 -11 84 -29 100 -12 11 -46 52
-76 90 -30 39 -91 115 -134 170 -115 143 -193 253 -222 308 -27 53 -117 335
-193 602 -26 94 -50 179 -54 190 -3 11 -3 -7 -1 -40z"/>
<path d="M360 1364 c0 -11 104 -146 138 -179 17 -16 32 -35 32 -40 0 -6 42
-52 94 -104 l93 -93 6 -61 c3 -34 24 -172 47 -307 23 -138 41 -282 41 -329 l1
-84 -41 -37 c-23 -21 -41 -45 -41 -54 0 -9 -3 -16 -8 -16 -12 0 -64 -52 -58
-58 4 -3 42 31 85 75 64 65 80 88 86 121 7 44 -13 208 -45 367 -31 150 -40
214 -40 283 0 85 -18 122 -91 190 -34 31 -115 119 -181 195 -65 76 -118 135
-118 131z"/>
<path d="M5540 459 l-95 -100 -95 -18 c-191 -38 -256 -49 -325 -56 -350 -33
-504 -55 -606 -88 -109 -36 -249 -93 -379 -155 -56 -27 -69 -37 -53 -39 12 -3
43 7 70 20 114 58 323 147 378 161 92 23 247 44 605 82 182 19 394 68 439 101
59 43 161 154 161 174 0 11 -1 19 -2 18 -2 0 -46 -46 -98 -100z"/>
<path d="M5534 393 c-56 -56 -115 -108 -131 -117 -17 -8 -132 -28 -264 -46
-129 -17 -304 -41 -389 -55 -85 -13 -234 -36 -330 -50 -162 -25 -182 -30 -270
-73 l-95 -47 769 -3 c423 -1 771 0 774 3 11 11 -73 117 -132 166 -36 30 -65
56 -65 59 0 3 27 28 59 55 78 67 182 182 178 198 -2 6 -49 -34 -104 -90z"/>
</g>
</svg>
